<?xml version="1.0" encoding="UTF-8"?>
<svg width="99px" height="21px" viewBox="0 0 99 21" version="1.1" xmlns="http://www.w3.org/2000/svg" xmlns:xlink="http://www.w3.org/1999/xlink">
    <title>{ jennifer }</title>
    <g id="Page-1" stroke="none" stroke-width="1" fill="none" fill-rule="evenodd">
        <g id="{-jennifer-}" transform="translate(0.886364, 0.727272)" fill="#000000" fill-rule="nonzero">
            <path d="M0,9.44121232 L0,8.52937741 C0.818847721,8.52937741 1.39007682,8.35786375 1.71369248,8.0146639 C2.04220984,7.67156757 2.20646852,7.09804076 2.20646852,6.29411796 L2.20646852,3.94117151 C2.20646852,3.26470199 2.27021649,2.6789242 2.39769517,2.18382088 C2.53008417,1.68872619 2.7433771,1.2794142 3.03757394,0.955884928 C3.33177077,0.632355654 3.72402747,0.392158893 4.21436129,0.235294645 C4.70468647,0.0784312609 5.31023609,0 6.03101878,0 L6.03101878,1.44117884 C5.46224052,1.44117884 5.01358841,1.52941174 4.68507105,1.70587755 C4.36145539,1.88235199 4.13100652,2.15686011 3.99370719,2.52941054 C3.86132681,2.89706058 3.79512799,3.36764469 3.79512799,3.94117151 L3.79512799,6.88235458 C3.79512799,7.26470579 3.74364289,7.61274564 3.64067271,7.92646551 C3.54261285,8.24018537 3.35873874,8.5097931 3.08905903,8.73531457 C2.81937931,8.96074977 2.43447516,9.13476539 1.93433795,9.25736141 C1.43911107,9.37987116 0.794330599,9.44121232 0,9.44121232 Z M6.03101878,18.8235613 C5.31023609,18.8235613 4.70468647,18.7450515 4.21436129,18.5882045 C3.72402747,18.4313575 3.33177077,18.1911694 3.03757394,17.8676401 C2.7433771,17.5441108 2.53008417,17.1348247 2.39769517,16.6396955 C2.27021649,16.1445663 2.20646852,15.5588489 2.20646852,14.8823731 L2.20646852,12.5294071 C2.20646852,11.7255015 2.04220984,11.1519488 1.71369248,10.8088353 C1.39007682,10.4657217 0.818847721,10.2941218 0,10.2941218 L0,9.38237312 C0.794330599,9.38237312 1.43911107,9.443628 1.93433795,9.56613775 C2.43447516,9.68873378 2.81937931,9.86274939 3.08905903,10.0882709 C3.35873874,10.3137061 3.54261285,10.5833138 3.64067271,10.8970941 C3.74364289,11.210788 3.79512799,11.5588193 3.79512799,11.9411877 L3.79512799,14.8823731 C3.79512799,15.4558372 3.86132681,15.9264645 3.99370719,16.29408 C4.13100652,16.6617818 4.36145539,16.9338052 4.68507105,17.1103228 C5.01358841,17.2916717 5.46224052,17.3823462 6.03101878,17.3823462 L6.03101878,18.8235613 Z M0,10.2941218 L0,8.52937741 L1.73575875,8.52937741 L1.73575875,10.2941218 L0,10.2941218 Z M14.1526499,4.47058619 L15.888438,4.47058619 L15.888438,16.5881897 C15.888438,17.2843384 15.7683119,17.8872244 15.5280596,18.3970203 C15.29264,18.9068161 14.9347643,19.3014356 14.4542597,19.5808786 C13.9785879,19.8603216 13.3779572,20 12.6522814,20 C12.5934265,20 12.5345716,20 12.4757167,20 C12.4169481,20 12.3580932,20 12.2992383,20 L12.2992383,18.3823536 C12.3580932,18.3823536 12.4120292,18.3823536 12.4610462,18.3823536 C12.5100632,18.3823536 12.5639991,18.3823536 12.622854,18.3823536 C13.1523755,18.3823536 13.539765,18.2255066 13.7849363,17.9117264 C14.0301075,17.60295 14.1526499,17.1617424 14.1526499,16.5881897 L14.1526499,4.47058619 Z M15.0058734,2.58823247 C14.6675009,2.58823247 14.375729,2.4730388 14.1306441,2.24264281 C13.8903055,2.01225546 13.7701794,1.73529465 13.7701794,1.41176787 C13.7701794,1.0882386 13.8903055,0.811271656 14.1306441,0.580884303 C14.375729,0.350488322 14.6675009,0.235294645 15.0058734,0.235294645 C15.3441596,0.235294645 15.6334289,0.350488322 15.8736812,0.580884303 C16.1188524,0.811271656 16.2414811,1.0882386 16.2414811,1.41176787 C16.2414811,1.73529465 16.1188524,2.01225546 15.8736812,2.24264281 C15.6334289,2.4730388 15.3441596,2.58823247 15.0058734,2.58823247 Z M23.8041633,15.9999703 C22.7156066,15.9999703 21.7766034,15.7597822 20.9872401,15.2794059 C20.2027094,14.794112 19.5971598,14.1176339 19.1705912,13.2499715 C18.7488553,12.3774777 18.5380304,11.3627174 18.5380304,10.205863 C18.5380304,9.04900856 18.7488553,8.02941683 19.1705912,7.14705329 C19.5971598,6.25979798 20.1904552,5.56862729 20.9504773,5.07352397 C21.7153321,4.57352889 22.6077347,4.32353135 23.6275986,4.32353135 C24.215975,4.32353135 24.7970162,4.42156503 25.370722,4.61764102 C25.9444279,4.81372565 26.4666141,5.13235453 26.937367,5.57352768 C27.4080336,6.00980044 27.7831689,6.58823627 28.0626002,7.30881792 C28.3421178,8.02941683 28.4818335,8.91666352 28.4818335,9.97059248 L28.4818335,10.7059098 L19.7736382,10.7059098 L19.7736382,9.20585555 L26.7167043,9.20585555 C26.7167043,8.56863229 26.5891565,7.99999724 26.3342337,7.49999353 C26.0841435,6.99999845 25.7261815,6.60538763 25.2604338,6.31617834 C24.7995188,6.02696043 24.2552404,5.88234716 23.6275986,5.88234716 C22.9362693,5.88234716 22.338055,6.0539212 21.8330419,6.39706066 C21.3328616,6.73529111 20.9479747,7.17646425 20.678295,7.72058873 C20.4086153,8.26468732 20.2738185,8.84807531 20.2738185,9.47054564 L20.2738185,10.4705531 C20.2738185,11.3235488 20.4208695,12.0465289 20.7150577,12.6396659 C21.0141649,13.2279715 21.4284792,13.6764262 21.958087,13.9852888 C22.4876085,14.2892338 23.1029961,14.4411631 23.8041633,14.4411631 C24.2601594,14.4411631 24.6720574,14.3774063 25.0397711,14.2499789 C25.4124037,14.1176339 25.733603,13.921532 26.0032828,13.6617595 C26.2729625,13.3970695 26.4812847,13.0686225 26.6284219,12.6765051 L28.3053551,13.147046 C28.1287904,13.7156811 27.8321859,14.2156417 27.4153689,14.647014 C26.9986382,15.073555 26.4837873,15.4068333 25.8709024,15.6470215 C25.2579312,15.8823782 24.5690182,15.9999703 23.8041633,15.9999703 Z M32.8579802,8.97058506 L32.8579802,15.7646998 L31.1222784,15.7646998 L31.1222784,4.47058619 L32.7992116,4.47058619 L32.7992116,6.23529603 L32.9462625,6.23529603 C33.2110233,5.66176058 33.6130834,5.20097725 34.1524428,4.8529374 C34.6918023,4.49999715 35.3881369,4.32353135 36.241274,4.32353135 C37.0062151,4.32353135 37.6754523,4.48038697 38.2491582,4.79411546 C38.822864,5.10294356 39.2690221,5.57352768 39.5877188,6.20587643 C39.9065018,6.83333342 40.065807,7.62744681 40.065807,8.5882166 L40.065807,15.7646998 L38.3301052,15.7646998 L38.3301052,8.70589498 C38.3301052,7.81862241 38.0996046,7.12745173 37.6386896,6.63234841 C37.1777746,6.13235332 36.5453002,5.88234716 35.74118,5.88234716 C35.1870637,5.88234716 34.6918023,6.00244985 34.255482,6.24264661 C33.8239945,6.48284337 33.4832056,6.83333342 33.2331155,7.29411675 C32.9830253,7.75490009 32.8579802,8.31369122 32.8579802,8.97058506 Z M44.9733738,8.97058506 L44.9733738,15.7646998 L43.2375857,15.7646998 L43.2375857,4.47058619 L44.9145189,4.47058619 L44.9145189,6.23529603 L45.0616561,6.23529603 C45.3264169,5.66176058 45.728477,5.20097725 46.2678364,4.8529374 C46.8071958,4.49999715 47.5034441,4.32353135 48.3566676,4.32353135 C49.1215224,4.32353135 49.7908459,4.48038697 50.3645517,4.79411546 C50.9381713,5.10294356 51.3844157,5.57352768 51.7031124,6.20587643 C52.0218091,6.83333342 52.1812006,7.62744681 52.1812006,8.5882166 L52.1812006,15.7646998 L50.4454125,15.7646998 L50.4454125,8.70589498 C50.4454125,7.81862241 50.2149982,7.12745173 49.7540832,6.63234841 C49.2931682,6.13235332 48.6606074,5.88234716 47.8564872,5.88234716 C47.3024572,5.88234716 46.8071958,6.00244985 46.3707893,6.24264661 C45.9393018,6.48284337 45.5985129,6.83333342 45.348509,7.29411675 C45.0984189,7.75490009 44.9733738,8.31369122 44.9733738,8.97058506 Z M55.3529792,15.7646998 L55.3529792,4.47058619 L57.0887673,4.47058619 L57.0887673,15.7646998 L55.3529792,15.7646998 Z M56.2355439,2.58823247 C55.8972576,2.58823247 55.6054858,2.4730388 55.3603145,2.24264281 C55.1200623,2.01225546 54.9999361,1.73529465 54.9999361,1.41176787 C54.9999361,1.0882386 55.1200623,0.811271656 55.3603145,0.580884303 C55.6054858,0.350488322 55.8972576,0.235294645 56.2355439,0.235294645 C56.5739164,0.235294645 56.8631857,0.350488322 57.1034379,0.580884303 C57.3486091,0.811271656 57.4712379,1.0882386 57.4712379,1.41176787 C57.4712379,1.73529465 57.3486091,2.01225546 57.1034379,2.24264281 C56.8631857,2.4730388 56.5739164,2.58823247 56.2355439,2.58823247 Z M65.2986809,4.47058619 L65.2986809,5.94117772 L59.2087519,5.94117772 L59.2087519,4.47058619 L65.2986809,4.47058619 Z M61.0328224,15.7646998 L61.0328224,2.91176175 C61.0328224,2.2647032 61.1847923,1.72548774 61.4888184,1.29411537 C61.7928446,0.862743007 62.1875694,0.539213732 62.6729928,0.323527549 C63.1584163,0.107843092 63.6707646,0 64.2101241,0 C64.6366927,0 64.9848168,0.0343139463 65.2544965,0.102941839 C65.5241762,0.171568869 65.7252494,0.235293783 65.8576298,0.294116581 L65.3574495,1.79411908 C65.2692534,1.76470812 65.1466246,1.72793793 64.9897358,1.6838258 C64.8377659,1.63970503 64.6366927,1.61764465 64.3866025,1.61764465 C63.8129829,1.61764465 63.3986686,1.76225792 63.1436595,2.05146721 C62.8935693,2.34068513 62.7685242,2.76470691 62.7685242,3.32352393 L62.7685242,15.7646998 L61.0328224,15.7646998 Z M72.0026165,15.9999703 C70.9141461,15.9999703 69.9751429,15.7597822 69.1856933,15.2794059 C68.4011626,14.794112 67.795613,14.1176339 67.3690444,13.2499715 C66.9473948,12.3774777 66.73657,11.3627174 66.73657,10.205863 C66.73657,9.04900856 66.9473948,8.02941683 67.3690444,7.14705329 C67.795613,6.25979798 68.3889084,5.56862729 69.1489305,5.07352397 C69.9138716,4.57352889 70.8062742,4.32353135 71.8261381,4.32353135 C72.4145146,4.32353135 72.9955557,4.42156503 73.5692615,4.61764102 C74.1428811,4.81372565 74.6651536,5.13235453 75.1358202,5.57352768 C75.6065731,6.00980044 75.9816221,6.58823627 76.2611397,7.30881792 C76.5406573,8.02941683 76.680373,8.91666352 76.680373,9.97059248 L76.680373,10.7059098 L67.9721777,10.7059098 L67.9721777,9.20585555 L74.9151575,9.20585555 C74.9151575,8.56863229 74.787696,7.99999724 74.5327732,7.49999353 C74.282683,6.99999845 73.924721,6.60538763 73.458887,6.31617834 C72.997972,6.02696043 72.4537799,5.88234716 71.8261381,5.88234716 C71.1348088,5.88234716 70.5365945,6.0539212 70.0314951,6.39706066 C69.5314011,6.73529111 69.1465142,7.17646425 68.8768345,7.72058873 C68.6071548,8.26468732 68.4722717,8.84807531 68.4722717,9.47054564 L68.4722717,10.4705531 C68.4722717,11.3235488 68.619409,12.0465289 68.9135972,12.6396659 C69.2127044,13.2279715 69.6270187,13.6764262 70.1565402,13.9852888 C70.686148,14.2892338 71.3014493,14.4411631 72.0026165,14.4411631 C72.4586126,14.4411631 72.8705106,14.3774063 73.2383106,14.2499789 C73.6109432,14.1176339 73.9320562,13.921532 74.201736,13.6617595 C74.4714157,13.3970695 74.6798242,13.0686225 74.8269614,12.6765051 L76.5038083,13.147046 C76.3273299,13.7156811 76.0306391,14.2156417 75.6139084,14.647014 C75.1970914,15.073555 74.6822405,15.4068333 74.0693556,15.6470215 C73.4564707,15.8823782 72.7675577,15.9999703 72.0026165,15.9999703 Z M79.3207316,15.7646998 L79.3207316,4.47058619 L80.9976648,4.47058619 L80.9976648,6.17646546 L81.1153746,6.17646546 C81.3212804,5.61764844 81.6939131,5.1642157 82.2332725,4.81617584 C82.772632,4.46813599 83.3806842,4.29411175 84.057343,4.29411175 C84.1848044,4.29411175 84.3441959,4.29657057 84.5354312,4.30147096 C84.7266664,4.30637135 84.8713011,4.31372194 84.969335,4.32353135 L84.969335,6.08823256 C84.9104801,6.07353139 84.7756834,6.05147101 84.5648586,6.02206004 C84.3588665,5.98774005 84.1407064,5.97058869 83.9102057,5.97058869 C83.3610947,5.97058869 82.8707522,6.08578236 82.4392647,6.31617834 C82.0126961,6.54166531 81.6743236,6.8553938 81.4242334,7.25734657 C81.1791485,7.65440758 81.0565197,8.10784033 81.0565197,8.61763619 L81.0565197,15.7646998 L79.3207316,15.7646998 Z M98,9.38237312 L98,10.2941218 C97.1818996,10.2941218 96.6080212,10.4657217 96.2792277,10.8088353 C95.955612,11.1519488 95.7942357,11.7255015 95.7942357,12.5294071 L95.7942357,14.8823731 C95.7942357,15.5588489 95.7277866,16.1445663 95.5957514,16.6396955 C95.4680311,17.1348247 95.2566022,17.5441108 94.9631907,17.8676401 C94.6689162,18.1911694 94.2762625,18.4313575 93.7860926,18.5882045 C93.2959228,18.7450515 92.6901143,18.8235613 91.9695301,18.8235613 L91.9695301,17.3823462 C92.5382307,17.3823462 92.9843888,17.2916717 93.3080044,17.1103228 C93.6367979,16.9338052 93.8672123,16.6617818 93.9992475,16.29408 C94.1364605,15.9264645 94.2054985,15.4558372 94.2054985,14.8823731 L94.2054985,11.9411877 C94.2054985,11.5588193 94.2546881,11.210788 94.3522043,10.8970941 C94.4548983,10.5833138 94.641301,10.3137061 94.9114122,10.0882709 C95.1806604,9.86274939 95.5638213,9.68873378 96.058306,9.56613775 C96.5588316,9.443628 97.2060629,9.38237312 98,9.38237312 Z M91.9695301,0 C92.6901143,0 93.2959228,0.0784312609 93.7860926,0.235294645 C94.2762625,0.392158893 94.6689162,0.632355654 94.9631907,0.955884928 C95.2566022,1.2794142 95.4680311,1.68872619 95.5957514,2.18382088 C95.7277866,2.6789242 95.7942357,3.26470199 95.7942357,3.94117151 L95.7942357,6.29411796 C95.7942357,7.09804076 95.955612,7.67156757 96.2792277,8.0146639 C96.6080212,8.35786375 97.1818996,8.52937741 98,8.52937741 L98,9.44121232 C97.2060629,9.44121232 96.5588316,9.37987116 96.058306,9.25736141 C95.5638213,9.13476539 95.1806604,8.96074977 94.9114122,8.73531457 C94.641301,8.5097931 94.4548983,8.24018537 94.3522043,7.92646551 C94.2546881,7.61274564 94.2054985,7.26470579 94.2054985,6.88235458 L94.2054985,3.94117151 C94.2054985,3.36764469 94.1364605,2.89706058 93.9992475,2.52941054 C93.8672123,2.15686011 93.6367979,1.88235199 93.3080044,1.70587755 C92.9843888,1.52941174 92.5382307,1.44117884 91.9695301,1.44117884 L91.9695301,0 Z M98,8.52937741 L98,10.2941218 L96.2645571,10.2941218 L96.2645571,8.52937741 L98,8.52937741 Z" id="Shape"></path>
        </g>
    </g>
</svg>