<svg width="115" height="24" viewBox="0 0 115 24" fill="none" xmlns="http://www.w3.org/2000/svg">
<path d="M0.886364 11.6705V10.6136C1.83523 10.6136 2.49716 10.4148 2.87216 10.017C3.25284 9.61932 3.44318 8.95455 3.44318 8.02273V5.29545C3.44318 4.51136 3.51705 3.83239 3.66477 3.25852C3.81818 2.68466 4.06534 2.21023 4.40625 1.83523C4.74716 1.46023 5.2017 1.18182 5.76989 1C6.33807 0.818181 7.03977 0.727272 7.875 0.727272V2.39773C7.21591 2.39773 6.69602 2.5 6.31534 2.70454C5.94034 2.90909 5.6733 3.22727 5.5142 3.65909C5.3608 4.08523 5.28409 4.63068 5.28409 5.29545V8.70455C5.28409 9.14773 5.22443 9.55114 5.10511 9.91477C4.99148 10.2784 4.77841 10.5909 4.46591 10.8523C4.15341 11.1136 3.70739 11.3153 3.12784 11.4574C2.55398 11.5994 1.80682 11.6705 0.886364 11.6705ZM7.875 22.5455C7.03977 22.5455 6.33807 22.4545 5.76989 22.2727C5.2017 22.0909 4.74716 21.8125 4.40625 21.4375C4.06534 21.0625 3.81818 20.5881 3.66477 20.0142C3.51705 19.4403 3.44318 18.7614 3.44318 17.9773V15.25C3.44318 14.3182 3.25284 13.6534 2.87216 13.2557C2.49716 12.858 1.83523 12.6591 0.886364 12.6591V11.6023C1.80682 11.6023 2.55398 11.6733 3.12784 11.8153C3.70739 11.9574 4.15341 12.1591 4.46591 12.4205C4.77841 12.6818 4.99148 12.9943 5.10511 13.358C5.22443 13.7216 5.28409 14.125 5.28409 14.5682V17.9773C5.28409 18.642 5.3608 19.1875 5.5142 19.6136C5.6733 20.0398 5.94034 20.3551 6.31534 20.5597C6.69602 20.7699 7.21591 20.875 7.875 20.875V22.5455ZM0.886364 12.6591V10.6136H2.89773V12.6591H0.886364ZM17.2862 5.90909H19.2976V19.9545C19.2976 20.7614 19.1584 21.4602 18.88 22.0511C18.6072 22.642 18.1925 23.0994 17.6357 23.4233C17.0845 23.7472 16.3885 23.9091 15.5476 23.9091C15.4794 23.9091 15.4112 23.9091 15.343 23.9091C15.2749 23.9091 15.2067 23.9091 15.1385 23.9091V22.0341C15.2067 22.0341 15.2692 22.0341 15.326 22.0341C15.3828 22.0341 15.4453 22.0341 15.5135 22.0341C16.1271 22.0341 16.576 21.8523 16.8601 21.4886C17.1442 21.1307 17.2862 20.6193 17.2862 19.9545V5.90909ZM18.2749 3.72727C17.8828 3.72727 17.5447 3.59375 17.2607 3.3267C16.9822 3.05966 16.843 2.73864 16.843 2.36364C16.843 1.98864 16.9822 1.66761 17.2607 1.40057C17.5447 1.13352 17.8828 1 18.2749 1C18.6669 1 19.0021 1.13352 19.2805 1.40057C19.5646 1.66761 19.7067 1.98864 19.7067 2.36364C19.7067 2.73864 19.5646 3.05966 19.2805 3.3267C19.0021 3.59375 18.6669 3.72727 18.2749 3.72727ZM28.4702 19.2727C27.2088 19.2727 26.1207 18.9943 25.206 18.4375C24.2969 17.875 23.5952 17.0909 23.1009 16.0852C22.6122 15.0739 22.3679 13.8977 22.3679 12.5568C22.3679 11.2159 22.6122 10.0341 23.1009 9.01136C23.5952 7.98295 24.2827 7.18182 25.1634 6.60795C26.0497 6.02841 27.0838 5.73864 28.2656 5.73864C28.9474 5.73864 29.6207 5.85227 30.2855 6.07954C30.9503 6.30682 31.5554 6.67614 32.1009 7.1875C32.6463 7.69318 33.081 8.36364 33.4048 9.19886C33.7287 10.0341 33.8906 11.0625 33.8906 12.2841V13.1364H23.7997V11.3977H31.8452C31.8452 10.6591 31.6974 10 31.402 9.42045C31.1122 8.84091 30.6974 8.38352 30.1577 8.0483C29.6236 7.71307 28.9929 7.54545 28.2656 7.54545C27.4645 7.54545 26.7713 7.74432 26.1861 8.14205C25.6065 8.53409 25.1605 9.04545 24.848 9.67614C24.5355 10.3068 24.3793 10.983 24.3793 11.7045V12.8636C24.3793 13.8523 24.5497 14.6903 24.8906 15.3778C25.2372 16.0597 25.7173 16.5795 26.331 16.9375C26.9446 17.2898 27.6577 17.4659 28.4702 17.4659C28.9986 17.4659 29.4759 17.392 29.902 17.2443C30.3338 17.0909 30.706 16.8636 31.0185 16.5625C31.331 16.2557 31.5724 15.875 31.7429 15.4205L33.6861 15.9659C33.4815 16.625 33.1378 17.2045 32.6548 17.7045C32.1719 18.1989 31.5753 18.5852 30.8651 18.8636C30.1548 19.1364 29.3565 19.2727 28.4702 19.2727ZM38.9616 11.125V19H36.9503V5.90909H38.8935V7.95455H39.0639C39.3707 7.28977 39.8366 6.75568 40.4616 6.35227C41.0866 5.94318 41.8935 5.73864 42.8821 5.73864C43.7685 5.73864 44.544 5.92045 45.2088 6.28409C45.8736 6.64205 46.3906 7.1875 46.7599 7.92045C47.1293 8.64773 47.3139 9.56818 47.3139 10.6818V19H45.3026V10.8182C45.3026 9.78977 45.0355 8.98864 44.5014 8.41477C43.9673 7.83523 43.2344 7.54545 42.3026 7.54545C41.6605 7.54545 41.0866 7.68466 40.581 7.96307C40.081 8.24148 39.6861 8.64773 39.3963 9.18182C39.1065 9.71591 38.9616 10.3636 38.9616 11.125ZM53.0007 11.125V19H50.9893V5.90909H52.9325V7.95455H53.103C53.4098 7.28977 53.8757 6.75568 54.5007 6.35227C55.1257 5.94318 55.9325 5.73864 56.9212 5.73864C57.8075 5.73864 58.5831 5.92045 59.2479 6.28409C59.9126 6.64205 60.4297 7.1875 60.799 7.92045C61.1683 8.64773 61.353 9.56818 61.353 10.6818V19H59.3416V10.8182C59.3416 9.78977 59.0746 8.98864 58.5405 8.41477C58.0064 7.83523 57.2734 7.54545 56.3416 7.54545C55.6996 7.54545 55.1257 7.68466 54.62 7.96307C54.12 8.24148 53.7251 8.64773 53.4354 9.18182C53.1456 9.71591 53.0007 10.3636 53.0007 11.125ZM65.0284 19V5.90909H67.0398V19H65.0284ZM66.0511 3.72727C65.6591 3.72727 65.321 3.59375 65.0369 3.3267C64.7585 3.05966 64.6193 2.73864 64.6193 2.36364C64.6193 1.98864 64.7585 1.66761 65.0369 1.40057C65.321 1.13352 65.6591 1 66.0511 1C66.4432 1 66.7784 1.13352 67.0568 1.40057C67.3409 1.66761 67.483 1.98864 67.483 2.36364C67.483 2.73864 67.3409 3.05966 67.0568 3.3267C66.7784 3.59375 66.4432 3.72727 66.0511 3.72727ZM76.5533 5.90909V7.61364H69.4964V5.90909H76.5533ZM71.6101 19V4.10227C71.6101 3.35227 71.7862 2.72727 72.1385 2.22727C72.4908 1.72727 72.9482 1.35227 73.5107 1.10227C74.0732 0.852272 74.6669 0.727272 75.2919 0.727272C75.7862 0.727272 76.1896 0.767045 76.5021 0.846591C76.8146 0.926136 77.0476 0.999999 77.201 1.06818L76.6214 2.80682C76.5192 2.77273 76.3771 2.73011 76.1953 2.67898C76.0192 2.62784 75.7862 2.60227 75.4964 2.60227C74.8317 2.60227 74.3516 2.76989 74.0561 3.10511C73.7663 3.44034 73.6214 3.93182 73.6214 4.57954V19H71.6101ZM84.3217 19.2727C83.0604 19.2727 81.9723 18.9943 81.0575 18.4375C80.1484 17.875 79.4467 17.0909 78.9524 16.0852C78.4638 15.0739 78.2195 13.8977 78.2195 12.5568C78.2195 11.2159 78.4638 10.0341 78.9524 9.01136C79.4467 7.98295 80.1342 7.18182 81.0149 6.60795C81.9013 6.02841 82.9354 5.73864 84.1172 5.73864C84.799 5.73864 85.4723 5.85227 86.1371 6.07954C86.8018 6.30682 87.407 6.67614 87.9524 7.1875C88.4979 7.69318 88.9325 8.36364 89.2564 9.19886C89.5803 10.0341 89.7422 11.0625 89.7422 12.2841V13.1364H79.6513V11.3977H87.6967C87.6967 10.6591 87.549 10 87.2536 9.42045C86.9638 8.84091 86.549 8.38352 86.0092 8.0483C85.4751 7.71307 84.8445 7.54545 84.1172 7.54545C83.3161 7.54545 82.6229 7.74432 82.0376 8.14205C81.4581 8.53409 81.0121 9.04545 80.6996 9.67614C80.3871 10.3068 80.2308 10.983 80.2308 11.7045V12.8636C80.2308 13.8523 80.4013 14.6903 80.7422 15.3778C81.0888 16.0597 81.5689 16.5795 82.1825 16.9375C82.7962 17.2898 83.5092 17.4659 84.3217 17.4659C84.8501 17.4659 85.3274 17.392 85.7536 17.2443C86.1854 17.0909 86.5575 16.8636 86.87 16.5625C87.1825 16.2557 87.424 15.875 87.5945 15.4205L89.5376 15.9659C89.3331 16.625 88.9893 17.2045 88.5064 17.7045C88.0234 18.1989 87.4268 18.5852 86.7166 18.8636C86.0064 19.1364 85.2081 19.2727 84.3217 19.2727ZM92.8018 19V5.90909H94.745V7.88636H94.8814C95.12 7.23864 95.5518 6.71307 96.1768 6.30966C96.8018 5.90625 97.5064 5.70454 98.2905 5.70454C98.4382 5.70454 98.6229 5.70739 98.8445 5.71307C99.0661 5.71875 99.2337 5.72727 99.3473 5.73864V7.78409C99.2791 7.76705 99.1229 7.74148 98.8786 7.70739C98.6399 7.66761 98.3871 7.64773 98.12 7.64773C97.4837 7.64773 96.9155 7.78125 96.4155 8.0483C95.9212 8.30966 95.5291 8.6733 95.2393 9.1392C94.9553 9.59943 94.8132 10.125 94.8132 10.7159V19H92.8018ZM114.447 11.6023V12.6591C113.499 12.6591 112.834 12.858 112.453 13.2557C112.078 13.6534 111.891 14.3182 111.891 15.25V17.9773C111.891 18.7614 111.814 19.4403 111.661 20.0142C111.513 20.5881 111.268 21.0625 110.928 21.4375C110.587 21.8125 110.132 22.0909 109.564 22.2727C108.996 22.4545 108.294 22.5455 107.459 22.5455V20.875C108.118 20.875 108.635 20.7699 109.01 20.5597C109.391 20.3551 109.658 20.0398 109.811 19.6136C109.97 19.1875 110.05 18.642 110.05 17.9773V14.5682C110.05 14.125 110.107 13.7216 110.22 13.358C110.339 12.9943 110.555 12.6818 110.868 12.4205C111.18 12.1591 111.624 11.9574 112.197 11.8153C112.777 11.6733 113.527 11.6023 114.447 11.6023ZM107.459 0.727272C108.294 0.727272 108.996 0.818181 109.564 1C110.132 1.18182 110.587 1.46023 110.928 1.83523C111.268 2.21023 111.513 2.68466 111.661 3.25852C111.814 3.83239 111.891 4.51136 111.891 5.29545V8.02273C111.891 8.95455 112.078 9.61932 112.453 10.017C112.834 10.4148 113.499 10.6136 114.447 10.6136V11.6705C113.527 11.6705 112.777 11.5994 112.197 11.4574C111.624 11.3153 111.18 11.1136 110.868 10.8523C110.555 10.5909 110.339 10.2784 110.22 9.91477C110.107 9.55114 110.05 9.14773 110.05 8.70455V5.29545C110.05 4.63068 109.97 4.08523 109.811 3.65909C109.658 3.22727 109.391 2.90909 109.01 2.70454C108.635 2.5 108.118 2.39773 107.459 2.39773V0.727272ZM114.447 10.6136V12.6591H112.436V10.6136H114.447Z" fill="black"/>
</svg>
